<svg width="512" height="512" viewBox="0 0 512 512" fill="none" xmlns="http://www.w3.org/2000/svg">
<g clip-path="url(#clip0_486_241)">
<path d="M512 0H0V512H512V0Z" fill="url(#paint0_linear_486_241)"/>
<g filter="url(#filter0_d_486_241)">
<path fill-rule="evenodd" clip-rule="evenodd" d="M185.418 359.695C197.123 354.348 209.912 347.085 223.282 338.075L242.936 353.605L243.074 353.715L243.217 353.818L245.989 355.785C192.143 393.9 142.895 408.618 122.884 388.685C95.5628 361.473 133.092 279.968 206.707 206.643C215.706 197.679 224.828 189.253 233.958 181.416C216.718 168.877 200.195 159.062 185.404 152.305C170.602 145.543 158.922 142.482 150.806 141.954C145.421 141.604 143.106 142.402 142.388 142.755C142.034 143.47 141.233 145.776 141.585 151.139C142.114 159.223 145.187 170.858 151.976 185.601C157.336 197.243 164.613 209.961 173.641 223.257L157.689 243.439L157.582 243.574L157.482 243.715L155.902 245.935C117.637 192.3 102.859 143.245 122.87 123.313C150.191 96.0996 232.017 133.481 305.633 206.807C314.645 215.784 323.118 224.885 330.995 233.993C343.653 216.752 353.555 200.226 360.363 185.437C367.153 170.693 370.225 159.059 370.755 150.975C371.108 145.612 370.305 143.306 369.953 142.59C369.233 142.238 366.918 141.44 361.533 141.79C353.418 142.318 341.738 145.379 326.935 152.141C314.948 157.617 301.825 165.101 288.103 174.417L269.4 158.854L269.255 158.732L269.1 158.618L265.995 156.312C319.985 118.004 369.413 103.172 389.47 123.149C416.79 150.363 379.263 231.867 305.645 305.193C296.575 314.228 287.38 322.718 278.175 330.608C295.485 343.213 312.075 353.075 326.923 359.858C341.723 366.62 353.403 369.683 361.52 370.21C366.905 370.56 369.218 369.763 369.938 369.41C370.293 368.693 371.093 366.388 370.74 361.025C370.21 352.94 367.138 341.305 360.35 326.563C354.848 314.615 347.33 301.535 337.97 287.86L353.433 269.425L353.555 269.278L353.67 269.125L356.138 265.828C394.615 319.618 409.515 368.868 389.455 388.85C362.135 416.065 280.308 378.683 206.693 305.358C197.636 296.335 189.126 287.19 181.215 278.038C168.627 295.208 158.774 311.665 151.99 326.398C145.201 341.143 142.129 352.775 141.599 360.86C141.247 366.223 142.048 368.53 142.402 369.245C143.121 369.598 145.435 370.395 150.82 370.045C158.936 369.518 170.616 366.458 185.418 359.695ZM284.243 224.326C276.748 217.731 266.898 213.729 256.11 213.729C245.074 213.729 235.021 217.918 227.464 224.787C227.04 225.206 226.615 225.627 226.191 226.05C225.686 226.553 225.183 227.056 224.682 227.56C217.798 235.084 213.6 245.09 213.6 256.073C213.6 266.493 217.379 276.035 223.647 283.41C224.485 284.258 225.328 285.105 226.177 285.95C227.003 286.773 227.83 287.59 228.658 288.403C236.065 294.65 245.646 298.415 256.11 298.415C266.42 298.415 275.873 294.76 283.23 288.68C284.21 287.723 285.185 286.758 286.163 285.785C287.058 284.895 287.945 284.003 288.83 283.11C294.945 275.775 298.623 266.35 298.623 256.073C298.623 245.325 294.6 235.512 287.978 228.045C287.37 227.435 286.76 226.824 286.148 226.214C285.513 225.581 284.878 224.952 284.243 224.326ZM142.139 369.088C142.141 369.085 142.173 369.105 142.23 369.153C142.166 369.113 142.138 369.09 142.139 369.088ZM142.495 369.418C142.542 369.473 142.562 369.505 142.56 369.508C142.557 369.508 142.534 369.48 142.495 369.418ZM370.215 142.747C370.213 142.749 370.18 142.73 370.125 142.683C370.188 142.722 370.215 142.745 370.215 142.747ZM369.858 142.419C369.813 142.363 369.793 142.331 369.795 142.329C369.795 142.327 369.82 142.355 369.858 142.419ZM369.78 369.67C369.78 369.67 369.783 369.663 369.793 369.648C369.803 369.633 369.82 369.61 369.845 369.58C369.805 369.645 369.783 369.673 369.78 369.67ZM370.11 369.315C370.165 369.27 370.198 369.25 370.2 369.253C370.203 369.255 370.175 369.278 370.11 369.315ZM142.545 142.493C142.547 142.495 142.528 142.527 142.481 142.583C142.52 142.519 142.543 142.491 142.545 142.493ZM142.215 142.847C142.159 142.894 142.127 142.913 142.125 142.911C142.123 142.909 142.151 142.886 142.215 142.847Z" fill="white"/>
</g>
</g>
<defs>
<filter id="filter0_d_486_241" x="63.9473" y="84.2617" width="384.445" height="383.477" filterUnits="userSpaceOnUse" color-interpolation-filters="sRGB">
<feFlood flood-opacity="0" result="BackgroundImageFix"/>
<feColorMatrix in="SourceAlpha" type="matrix" values="0 0 0 0 0 0 0 0 0 0 0 0 0 0 0 0 0 0 127 0" result="hardAlpha"/>
<feOffset dy="20"/>
<feGaussianBlur stdDeviation="25"/>
<feComposite in2="hardAlpha" operator="out"/>
<feColorMatrix type="matrix" values="0 0 0 0 0 0 0 0 0 0 0 0 0 0 0 0 0 0 0.25 0"/>
<feBlend mode="normal" in2="BackgroundImageFix" result="effect1_dropShadow_486_241"/>
<feBlend mode="normal" in="SourceGraphic" in2="effect1_dropShadow_486_241" result="shape"/>
</filter>
<linearGradient id="paint0_linear_486_241" x1="645.69" y1="-292.198" x2="-221.575" y2="908.502" gradientUnits="userSpaceOnUse">
<stop stop-color="white"/>
<stop offset="0.41507" stop-color="#0098EA"/>
<stop offset="0.770115" stop-color="#0538BC"/>
</linearGradient>
<clipPath id="clip0_486_241">
<rect width="512" height="512" fill="white"/>
</clipPath>
</defs>
</svg>
